<?xml version="1.0" encoding="iso-8859-1"?>
<!-- Uploaded to: SVG Repo, www.svgrepo.com, Generator: SVG Repo Mixer Tools -->
<svg version="1.1" id="Layer_1" xmlns="http://www.w3.org/2000/svg" xmlns:xlink="http://www.w3.org/1999/xlink" 
	 viewBox="0 0 512 512" xml:space="preserve">
<path style="fill:#AFF078;" d="M498.915,175.019C465.028,73.325,369.082,0,256,0C114.615,0,0,114.615,0,256
	c0,119.947,82.5,220.612,193.847,248.386L498.915,175.019z"/>
<path style="fill:#5AC779;" d="M512,256c0-28.302-4.604-55.529-13.085-80.981l-64.828-64.828l-356.174,256l52.313,52.313
	l-13.357,8.904l76.977,76.977C213.747,509.35,234.563,512,256,512C397.385,512,512,397.384,512,256z"/>
<polygon style="fill:#CCCCCC;" points="311.652,338.365 311.652,416.278 256,416.278 222.609,338.365 "/>
<g>
	<rect x="200.348" y="338.365" style="fill:#E5E5E5;" width="55.652" height="77.913"/>
	<polygon style="fill:#E5E5E5;" points="256,405.148 246.275,416.278 256,427.409 395.13,427.409 395.13,405.148 	"/>
</g>
<rect x="116.87" y="405.148" style="fill:#FFFFFF;" width="139.13" height="22.261"/>
<polygon style="fill:#243870;" points="256,110.191 189.217,355.061 434.087,321.67 434.087,110.191 "/>
<polygon style="fill:#3D4E9C;" points="256,110.191 77.913,110.191 77.913,321.67 256,355.061 "/>
<polygon style="fill:#E5E5E5;" points="256,321.67 230.067,343.93 256,366.191 434.087,366.191 434.087,321.67 "/>
<rect x="77.913" y="321.67" style="fill:#FFFFFF;" width="178.087" height="44.522"/>
<path style="fill:#4A75C3;" d="M361.739,254.887V87.93c0-12.243-10.017-22.261-22.261-22.261h-5.565L320,87.93L306.087,65.67H256
	l-44.522,205.913L361.739,254.887z"/>
<rect x="306.087" y="65.67" style="fill:#4F5AA8;" width="27.826" height="200.348"/>
<path style="fill:#458FDE;" d="M172.522,65.67c-12.243,0-22.261,10.017-22.261,22.261v166.957L256,271.583V65.67H172.522z"/>
<polygon style="fill:#3D4E9C;" points="256,277.148 248.609,266.017 256,254.887 361.739,254.887 361.739,277.148 "/>
<rect x="150.261" y="254.887" style="fill:#4D68B5;" width="105.739" height="22.261"/>
<rect x="172.522" y="87.93" style="fill:#6FAEE8;" width="22.261" height="100.174"/>
</svg>